<?xml version="1.0" encoding="UTF-8" standalone="no"?>
<!-- Uploaded to: SVG Repo, www.svgrepo.com, Generator: SVG Repo Mixer Tools -->

<svg
   height="264"
   width="420"
   version="1.1"
   id="Layer_1"
   viewBox="0 0 268.8 168.96"
   xml:space="preserve"
   sodipodi:docname="connect.svg"
   inkscape:export-filename="connect.png"
   inkscape:export-xdpi="96"
   inkscape:export-ydpi="96"
   inkscape:version="1.3 (0e150ed6c4, 2023-07-21)"
   xmlns:inkscape="http://www.inkscape.org/namespaces/inkscape"
   xmlns:sodipodi="http://sodipodi.sourceforge.net/DTD/sodipodi-0.dtd"
   xmlns="http://www.w3.org/2000/svg"
   xmlns:svg="http://www.w3.org/2000/svg"><defs
   id="defs13" /><sodipodi:namedview
   id="namedview13"
   pagecolor="#ffffff"
   bordercolor="#000000"
   borderopacity="0.25"
   inkscape:showpageshadow="2"
   inkscape:pageopacity="0.0"
   inkscape:pagecheckerboard="0"
   inkscape:deskcolor="#d1d1d1"
   inkscape:zoom="2.2475"
   inkscape:cx="202.8921"
   inkscape:cy="164.40489"
   inkscape:window-width="1920"
   inkscape:window-height="1137"
   inkscape:window-x="-8"
   inkscape:window-y="-8"
   inkscape:window-maximized="1"
   inkscape:current-layer="g13" />&#10;&#10;&#10;&#10;&#10;&#10;&#10;&#10;&#10;&#10;&#10;&#10;&#10;<g
   id="g13"
   transform="matrix(0,1.2197482,-1.2197482,0,236.35511,-65.323278)"
   style="stroke-width:0.819842"><path
     style="fill:#61f5b5;fill-opacity:1;stroke:none;stroke-width:0.819842;stroke-opacity:1"
     d="M 99.841996,157.80293 V 144.02995 L 88.490138,133.79254 C 73.38965,120.17454 71.972371,118.31558 69.993478,109.53176 l -0.572667,-2.54193 -0.04887,-31.969587 -0.04887,-31.969586 7.631728,-0.02152 c 4.197451,-0.01178 24.834501,-0.02152 45.860121,-0.02152 21.02561,0 41.66267,0.0097 45.86012,0.02152 l 7.63173,0.02152 -0.0489,31.969586 -0.0489,31.969587 -0.57266,2.54193 c -1.9789,8.78382 -3.39618,10.64278 -18.49666,24.26078 l -11.35186,10.23741 v 13.77298 13.77301 H 122.81493 99.841996 Z M 145.78786,88.98335 V 79.710553 H 122.81493 99.841996 v 9.272797 9.272797 h 22.972934 22.97293 z"
     id="path15" /><path
     style="fill:#738394;fill-opacity:1;stroke-width:0.819842"
     d="m 84.586542,19.374856 c 0,-25.885765 -0.04383,-24.8306887 1.129325,-27.1870166 3.07728,-6.1808574 10.802535,-5.6358424 13.333405,0.9406688 0.764351,1.9861775 0.78996,2.853246 0.791377,26.7940698 l 0.0014,22.912434 h -7.627731 -7.627731 z m 61.240238,-0.422687 0.0508,-23.8828444 0.41607,-1.2379092 c 2.40603,-7.1584244 10.39468,-8.1224224 13.62033,-1.643576 1.17315,2.3563279 1.12932,1.3012516 1.12932,27.1870166 v 23.460156 h -7.63369 -7.63369 z"
     id="path14" /></g><path
   style="fill:#000000"
   id="path13"
   d="" /></svg>
