<?xml version="1.0" encoding="UTF-8" standalone="no"?>
<!-- Uploaded to: SVG Repo, www.svgrepo.com, Generator: SVG Repo Mixer Tools -->

<svg
   height="264"
   width="420"
   version="1.1"
   id="Layer_1"
   viewBox="0 0 268.8 168.96"
   xml:space="preserve"
   sodipodi:docname="hourglass.svg"
   inkscape:export-filename="hourglass.png"
   inkscape:export-xdpi="96"
   inkscape:export-ydpi="96"
   inkscape:version="1.3 (0e150ed6c4, 2023-07-21)"
   xmlns:inkscape="http://www.inkscape.org/namespaces/inkscape"
   xmlns:sodipodi="http://sodipodi.sourceforge.net/DTD/sodipodi-0.dtd"
   xmlns="http://www.w3.org/2000/svg"
   xmlns:svg="http://www.w3.org/2000/svg"><defs
   id="defs13" /><sodipodi:namedview
   id="namedview13"
   pagecolor="#ffffff"
   bordercolor="#000000"
   borderopacity="0.25"
   inkscape:showpageshadow="2"
   inkscape:pageopacity="0.0"
   inkscape:pagecheckerboard="0"
   inkscape:deskcolor="#d1d1d1"
   inkscape:zoom="1.5892225"
   inkscape:cx="242.57145"
   inkscape:cy="119.86994"
   inkscape:window-width="1920"
   inkscape:window-height="1137"
   inkscape:window-x="-8"
   inkscape:window-y="-8"
   inkscape:window-maximized="1"
   inkscape:current-layer="Layer_1" />&#10;&#10;&#10;&#10;&#10;&#10;&#10;&#10;&#10;&#10;&#10;&#10;<g
   id="g13"
   transform="matrix(1,0,0,0.99047007,-1.0887545,5.7797448)"
   style="stroke-width:1.0048"><path
     style="fill:#e4eaf6;stroke-width:1.0048"
     d="m 98.056304,15.287319 v 20.551117 c 0,5.67305 2.253766,11.113782 6.264886,15.125209 l 21.58031,21.580319 c 1.00286,1.002851 1.56624,2.362813 1.56624,3.781214 v 6.264903 c 0,1.418107 -0.56338,2.778364 -1.56624,3.781226 l -21.58031,21.580303 c -4.01142,4.01083 -6.264886,9.45187 -6.264886,15.12462 v 20.55112 h 74.864906 v -20.55112 c 0,-5.67305 -2.25377,-11.11379 -6.26489,-15.12522 L 145.076,86.370695 c -1.00286,-1.002851 -1.56622,-2.362813 -1.56622,-3.781225 v -6.264892 c 0,-1.418118 0.56336,-2.778375 1.56622,-3.781226 l 21.58032,-21.580319 c 4.01142,-4.01112 6.26489,-9.451853 6.26489,-15.124597 V 15.287319 Z"
     id="path1" /><path
     style="fill:#d7deed;stroke-width:1.0048"
     d="M 124.79386,36.888539 V 17.96119 H 98.056304 v 17.877246 c 0,5.67305 2.253766,11.113477 6.264886,15.125209 l 21.57971,21.579707 c 1.00286,1.002851 1.56652,2.363108 1.56652,3.781226 v 6.264892 c 0,1.418118 -0.56336,2.778374 -1.56621,3.781225 L 104.32149,107.9504 c -4.01172,4.01173 -6.265186,9.45247 -6.265186,15.12553 v 17.87723 h 26.737556 v -18.92733 c 0,-5.17269 0.83384,-10.31206 2.46972,-15.21941 l 4.45394,-13.361518 c 0.72693,-2.181076 1.09767,-4.465148 1.09767,-6.764358 V 72.232893 c 0,-2.299211 -0.37074,-4.583271 -1.09767,-6.764347 l -4.45394,-13.361507 c -1.63588,-4.906458 -2.46972,-10.045823 -2.46972,-15.2185 z"
     id="path2" /><path
     style="fill:#ffd782;stroke-width:1.0048"
     d="m 160.98478,113.62346 -8.53593,-8.53594 c -1.00285,-1.00284 -2.3628,-1.56621 -3.78123,-1.56621 h -5.15723 c -2.95343,0 -5.34745,-2.39401 -5.34745,-5.347453 V 72.542752 c 0,-2.836531 1.12704,-5.557055 3.13274,-7.562768 l 13.04409,-13.043166 c 0.76509,-0.765087 0.99377,-1.913939 0.57942,-2.914072 -0.41373,-0.997405 -1.38903,-1.650426 -2.47034,-1.650426 h -33.92019 c -1.08099,0 -2.05599,0.652727 -2.47034,1.650426 -0.41374,1.000133 -0.18536,2.148985 0.57942,2.914072 l 13.04408,13.043166 c 2.00601,2.005713 3.13275,4.726237 3.13275,7.562768 v 25.630799 c 0,2.953439 -2.39401,5.347449 -5.34744,5.347449 h -5.15755 c -1.41811,0 -2.77806,0.56308 -3.78092,1.56592 l -8.53502,8.53351 c -2.50729,2.5076 -3.91601,5.90871 -3.91601,9.45519 v 9.85683 c 0,1.47656 1.1973,2.67386 2.67387,2.67386 h 53.47512 c 1.47656,0 2.67387,-1.1973 2.67387,-2.67386 v -9.85652 c -6e-4,-3.54527 -1.40871,-6.94578 -3.91571,-9.45247 z"
     id="path3" /><g
     id="g5"
     transform="matrix(0.30288592,0,0,0.30288592,57.949971,1.918539)"
     style="stroke-width:3.31743">&#10;	<path
   style="fill:#ffc36e;stroke-width:3.31743"
   d="m 191.849,155.518 c -1.366,3.302 -0.612,7.095 1.913,9.621 l 43.066,43.062 c 6.623,6.622 10.344,15.604 10.344,24.969 v -1.02 c 0,-7.591 -1.224,-15.132 -3.624,-22.333 l -14.705,-44.115 c -1.711,-5.135 -3.059,-10.367 -4.235,-15.634 h -24.604 c -3.568,10e-4 -6.788,2.156 -8.155,5.45 z"
   id="path4" />&#10;	<path
   style="fill:#ffc36e;stroke-width:3.31743"
   d="m 220.69,396.544 c 0,-17.078 2.753,-34.046 8.154,-50.248 l 3.719,-11.155 c -0.993,0.173 -2.002,0.307 -3.044,0.307 H 212.49 c -4.682,0 -9.173,1.859 -12.483,5.171 l -28.179,28.174 c -8.279,8.278 -12.931,19.508 -12.931,31.217 v 32.542 c 0,4.875 3.953,8.828 8.828,8.828 h 52.966 z"
   id="path5" />&#10;</g><path
     style="fill:#5b5d6e;stroke-width:1.0048"
     d="M 172.92121,17.96119 H 98.056304 c -1.47657,0 -2.673875,-1.197305 -2.673875,-2.673871 V 9.9398679 H 175.5951 v 5.3474511 c 0,1.476566 -1.19732,2.673871 -2.67389,2.673871 z"
     id="path6" /><path
     style="fill:#464655;stroke-width:1.0048"
     d="M 124.79386,15.287319 V 9.9398679 H 95.382728 v 5.3474511 c 0,1.476566 1.197313,2.673871 2.673876,2.673871 h 29.411136 c -1.47687,0 -2.67388,-1.197305 -2.67388,-2.673871 z"
     id="path7" /><path
     style="fill:#959cb3;stroke-width:1.0048"
     d="M 175.5951,12.613441 H 95.382429 c -1.476573,0 -2.67388,-1.197306 -2.67388,-2.67388 V 4.5924164 c 0,-1.476572 1.197307,-2.6738775 2.67388,-2.6738775 H 175.5951 c 1.47657,0 2.67386,1.1973055 2.67386,2.6738775 v 5.3474515 c -3e-4,1.4765671 -1.19729,2.6735731 -2.67386,2.6735731 z"
     id="path8" /><path
     style="fill:#707487;stroke-width:1.0048"
     d="M 122.11997,9.9398679 V 4.5924164 c 0,-1.476572 1.19732,-2.6738775 2.67389,-2.6738775 H 95.382728 c -1.476567,0 -2.673872,1.1973055 -2.673872,2.6738775 v 5.3474515 c 0,1.4765671 1.197305,2.6738721 2.673872,2.6738721 h 29.411132 c -1.47657,-2.99e-4 -2.67389,-1.197305 -2.67389,-2.6738721 z"
     id="path9" /><path
     style="fill:#5b5d6e;stroke-width:1.0048"
     d="M 172.92121,140.95347 H 98.056304 c -1.47657,0 -2.673875,1.1973 -2.673875,2.67388 v 5.34745 H 175.5951 v -5.34745 c 0,-1.47658 -1.19732,-2.67388 -2.67389,-2.67388 z"
     id="path10" /><path
     style="fill:#464655;stroke-width:1.0048"
     d="m 124.79386,143.62735 v 5.34745 H 95.382728 v -5.34745 c 0,-1.47658 1.197313,-2.67388 2.673876,-2.67388 h 29.411136 c -1.47687,0 -2.67388,1.1973 -2.67388,2.67388 z"
     id="path11" /><path
     style="fill:#959cb3;stroke-width:1.0048"
     d="M 175.5951,146.30121 H 95.382429 c -1.476573,0 -2.67388,1.19732 -2.67388,2.67388 v 5.34745 c 0,1.47657 1.197307,2.67388 2.67388,2.67388 H 175.5951 c 1.47657,0 2.67386,-1.19731 2.67386,-2.67388 v -5.34745 c -3e-4,-1.47687 -1.19729,-2.67388 -2.67386,-2.67388 z"
     id="path12" /><path
     style="fill:#707487;stroke-width:1.0048"
     d="m 122.11997,148.9748 v 5.34744 c 0,1.47657 1.19732,2.67388 2.67389,2.67388 H 95.382728 c -1.476567,0 -2.673872,-1.19731 -2.673872,-2.67388 v -5.34744 c 0,-1.47658 1.197305,-2.67388 2.673872,-2.67388 h 29.411132 c -1.47657,2.9e-4 -2.67389,1.1973 -2.67389,2.67388 z"
     id="path13" /></g>&#10;</svg>
