<?xml version="1.0" encoding="UTF-8" standalone="no"?>
<svg
   viewBox="0 0 420 264"
   enable-background="new 0 0 64 64"
   version="1.1"
   id="svg1"
   sodipodi:docname="info.svg"
   width="420"
   height="264"
   inkscape:version="1.3 (0e150ed6c4, 2023-07-21)"
   inkscape:export-filename="info.png"
   inkscape:export-xdpi="96"
   inkscape:export-ydpi="96"
   xml:space="preserve"
   xmlns:inkscape="http://www.inkscape.org/namespaces/inkscape"
   xmlns:sodipodi="http://sodipodi.sourceforge.net/DTD/sodipodi-0.dtd"
   xmlns="http://www.w3.org/2000/svg"
   xmlns:svg="http://www.w3.org/2000/svg"><defs
     id="defs1" /><sodipodi:namedview
     id="namedview1"
     pagecolor="#ffffff"
     bordercolor="#000000"
     borderopacity="0.25"
     inkscape:showpageshadow="2"
     inkscape:pageopacity="0.0"
     inkscape:pagecheckerboard="0"
     inkscape:deskcolor="#d1d1d1"
     inkscape:zoom="2"
     inkscape:cx="166.25"
     inkscape:cy="166.25"
     inkscape:window-width="1920"
     inkscape:window-height="1137"
     inkscape:window-x="-8"
     inkscape:window-y="-8"
     inkscape:window-maximized="1"
     inkscape:current-layer="layer1" /><g
     inkscape:groupmode="layer"
     id="layer1"
     inkscape:label="Layer 1"><g
       id="g1"
       transform="matrix(1,0,0,0.96000005,0,11.999996)"
       style="stroke-width:1.02062"><path
         style="fill:#1945f0;fill-opacity:1;stroke-width:1.02062"
         d="m 80.990362,249.32709 c -4.911081,-1.54095 -9.244476,-5.3058 -11.79328,-10.24599 -1.837871,-3.5622 -2.16505,-10.67714 -0.67069,-14.58486 C 69.628897,221.61321 191.47002,11.852302 194.32262,7.9262536 c 6.15727,-8.47429888 17.81364,-10.437724 26.76528,-4.508406 1.5099,1.0001192 3.47897,2.8913717 4.3757,4.2027831 3.30089,4.8272973 124.26932,212.9468393 125.55515,216.0107293 3.81522,9.09095 -0.4585,20.18993 -9.48012,24.62015 l -3.28807,1.61466 -127.42623,0.10816 C 107.133,250.06242 82.949625,249.94186 80.990362,249.32705 Z M 331.7346,228.67652 C 331.11178,227.64585 323.65868,214.8672 315.17215,200.2795 306.68562,185.69178 292.03431,160.52365 282.61367,144.35032 273.19302,128.177 258.15644,102.36021 249.19903,86.979691 240.24162,71.599166 227.81318,50.260757 221.58028,39.560997 215.34738,28.861238 210.118,20.105508 209.95945,20.10382 c -0.24577,-0.0026 -17.79047,29.791884 -29.17071,49.537846 -2.54161,4.409987 -91.573735,157.290874 -93.455427,160.476324 -0.140487,0.23784 55.047107,0.43244 122.639127,0.43244 h 122.89458 z"
         id="path1"
         sodipodi:nodetypes="sssssssscsssssssssssscs" /><path
         style="opacity:0.96;fill:#9db0f9;fill-opacity:1;stroke:none;stroke-width:5.1031;stroke-linecap:square;stroke-linejoin:bevel;stroke-miterlimit:0;paint-order:stroke markers fill"
         d="M 87.072367,230.59863 209.9435,19.497661 333.63839,230.80056 Z"
         id="path2"
         sodipodi:nodetypes="cccc" /><g
         id="g4"
         transform="matrix(0.28375373,0,0,0.28375373,124.30484,102.74802)"
         style="stroke-width:3.59685"><path
           style="fill:#ffc843;fill-opacity:1;stroke-width:3.59685"
           d="m 249.53187,268.6803 c -2.32303,-4.49225 -11.23962,-15.79421 -22.49644,-28.51471 -23.37944,-26.41937 -33.88268,-43.03679 -40.62039,-64.26647 -7.50425,-23.64493 -8.1717,-53.24309 -1.7208,-76.309647 12.76944,-45.659856 50.32304,-80.103739 97.56675,-89.487506 12.30489,-2.4440541 33.31978,-2.6314823 45.52875,-0.4060628 53.5412,9.7593478 94.81658,52.6338208 102.4772,106.4473658 2.49959,17.55891 0.36115,42.42751 -5.13838,59.75585 -6.73101,21.20855 -17.11525,37.64304 -40.60719,64.26647 -11.33305,12.84375 -20.24177,24.12912 -22.50965,28.51471 l -1.23855,2.3951 H 349.6653 338.55744 l 0.50953,-4.86935 c 1.37665,-13.15594 7.22422,-26.79157 19.97552,-46.57982 14.37058,-22.30116 19.21235,-35.49009 20.12848,-54.82976 l 0.48139,-10.16213 -2.24283,-2.07477 c -2.89103,-2.6744 -7.44271,-2.79412 -9.97448,-0.26235 -1.53403,1.53403 -1.91895,3.28583 -2.50596,11.4047 -1.31629,18.20544 -5.25074,28.58043 -18.63074,49.12854 -12.56162,19.29129 -17.77992,31.12504 -20.64281,46.81254 -0.765,4.19188 -1.55772,8.47903 -1.7616,9.527 -0.37033,1.90358 -0.38762,1.9054 -18.12214,1.9054 -17.73453,0 -17.75181,-0.002 -18.12215,-1.9054 -0.20388,-1.04797 -0.96253,-5.15822 -1.6859,-9.1339 -2.89489,-15.9106 -8.06214,-27.68093 -20.79516,-47.36876 -13.49018,-20.85856 -17.23679,-30.7461 -18.55408,-48.96542 -0.58701,-8.11887 -0.97194,-9.87067 -2.50596,-11.4047 -2.53201,-2.532 -7.08417,-2.41223 -9.97134,0.26235 -2.2388,2.07396 -2.23949,2.07875 -1.78032,12.2369 0.86631,19.16518 5.78918,32.59598 20.00329,54.57386 8.35301,12.91544 12.47974,20.55487 15.64244,28.9574 2.17117,5.76827 4.74226,16.93408 4.74226,20.59486 v 2.15281 h -10.98723 -10.98722 z"
           id="path10"
           sodipodi:nodetypes="sssssssssscccssscssssssssssssssssscccs" /><path
           style="fill:#e6b43c;fill-opacity:1;stroke-width:3.59685"
           d="m 250.52509,372.94459 c 1.0534,-0.20256 2.57772,-0.19487 3.38738,0.0171 0.80966,0.21196 -0.0522,0.37769 -1.91527,0.36829 -1.86306,-0.009 -2.52551,-0.18282 -1.47211,-0.38538 z m 107.5492,0 c 1.0534,-0.20256 2.57772,-0.19487 3.38738,0.0171 0.80966,0.21196 -0.0522,0.37769 -1.91527,0.36829 -1.86306,-0.009 -2.52551,-0.18282 -1.47211,-0.38538 z M 254.60786,281.90864 c -0.31338,-1.95972 -1.29335,-5.1989 -2.17773,-7.19818 l -1.60796,-3.63506 h 10.89926 c 9.66815,0 10.943,-0.1674 11.28654,-1.48198 0.21301,-0.81509 0.43149,0.65605 0.48552,3.26918 0.054,2.61314 0.34057,6.51921 0.63676,8.68015 l 0.53853,3.929 h -9.74558 -9.74558 z m 33.88799,-0.036 c -0.68918,-5.6011 -1.15227,-13.03085 -0.73897,-11.85582 0.28176,0.80106 4.66399,1.05856 18.01492,1.05856 13.33656,0 17.74003,-0.25836 18.04186,-1.05856 0.39854,-1.05661 0.23176,1.38883 -0.72191,10.58555 l -0.50494,4.86936 h -16.82406 -16.82406 z m 48.90728,-0.84684 c 0.29371,-2.44527 0.58923,-6.54187 0.65671,-9.10358 0.0675,-2.5617 0.28783,-3.80021 0.48968,-2.75224 0.35792,1.8583 0.6365,1.9054 11.26945,1.9054 h 10.90246 l -1.60797,3.63506 c -0.88437,1.99928 -1.86435,5.23846 -2.17772,7.19818 l -0.56977,3.56311 h -9.74843 -9.74843 z"
           id="path9"
           sodipodi:nodetypes="sscsssscsssscsssscccsssssscccssssscsscccs" /><path
           d="m 238.71622,151.08308 c -0.35577,0.0245 -0.70889,0.0851 -1.05856,0.18194 -0.34967,0.0969 -0.6956,0.22895 -1.0354,0.39861 -0.33979,0.16966 -0.67452,0.37562 -1.00066,0.61859 -0.51494,0.38362 -0.91503,0.71743 -1.22892,1.0966 -0.15694,0.18958 -0.29093,0.39053 -0.40853,0.61528 -0.11761,0.22476 -0.21878,0.47342 -0.30434,0.75753 -0.17111,0.56824 -0.28553,1.27875 -0.37215,2.22958 -0.0866,0.95083 -0.14469,2.14161 -0.20509,3.66856 -0.0644,1.62804 -0.0682,3.27866 -0.0132,4.94709 0.055,1.66843 0.16897,3.35561 0.34072,5.05295 0.17174,1.69733 0.40057,3.40601 0.68641,5.12076 0.28583,1.71475 0.62819,3.43482 1.02547,5.15549 0.39728,1.72067 0.85021,3.44205 1.35627,5.15715 0.50607,1.71511 1.06495,3.42437 1.67715,5.12241 0.61221,1.69805 1.27738,3.3851 1.99306,5.05461 0.71569,1.6695 1.48254,3.32093 2.29905,4.95039 0.93357,1.86306 2.63031,4.86996 4.61133,8.21208 1.98103,3.34211 4.24612,7.01888 6.31825,10.22663 1.86901,2.8933 3.57291,5.61236 5.12573,8.19553 1.55281,2.58318 2.95457,5.03054 4.22099,7.38508 1.26641,2.35454 2.39742,4.61533 3.40722,6.82272 1.0098,2.20738 1.89814,4.36179 2.68112,6.5035 0.78298,2.14171 1.46005,4.27155 2.04599,6.42906 0.58594,2.15752 1.08148,4.34298 1.50017,6.59778 0.4187,2.2548 0.76078,4.57936 1.04202,7.01293 0.28123,2.43357 0.50126,4.97574 0.67482,7.66956 l 0.58056,9.00103 -13.88031,0.36388 c -3.04638,0.0799 -5.46307,0.15747 -7.42477,0.25306 -1.9617,0.0956 -3.46845,0.21044 -4.69072,0.36553 -1.22227,0.15509 -2.16066,0.35027 -2.98877,0.60867 -0.8281,0.2584 -1.54631,0.58026 -2.32551,0.98578 -0.69984,0.36422 -1.37384,0.78574 -2.01787,1.25869 -0.64403,0.47294 -1.25668,0.99641 -1.83593,1.56302 -0.57925,0.56661 -1.1237,1.17581 -1.62918,1.82104 -0.50549,0.64524 -0.97323,1.32727 -1.39597,2.03607 -0.42275,0.7088 -0.80196,1.4458 -1.13299,2.20312 -0.33103,0.75731 -0.6132,1.53473 -0.84353,2.32551 -0.23034,0.79077 -0.40862,1.59407 -0.52928,2.40325 -0.12066,0.80919 -0.18324,1.62379 -0.18525,2.43633 l -0.005,1.9054 h 71.98175 71.98174 l -0.005,-1.9054 c -0.002,-0.81254 -0.0662,-1.62714 -0.1869,-2.43633 -0.12066,-0.80918 -0.29729,-1.61248 -0.52762,-2.40325 -0.23034,-0.79078 -0.51416,-1.5682 -0.84519,-2.32551 -0.33103,-0.75732 -0.71024,-1.49432 -1.13299,-2.20312 -0.42274,-0.7088 -0.88883,-1.39083 -1.39431,-2.03607 -0.50549,-0.64523 -1.04994,-1.25443 -1.62918,-1.82104 -0.57925,-0.56661 -1.19356,-1.09008 -1.83759,-1.56302 -0.64403,-0.47295 -1.31803,-0.89447 -2.01787,-1.25869 -0.77913,-0.40548 -1.49591,-0.72739 -2.32386,-0.98578 -0.82795,-0.25839 -1.76705,-0.45358 -2.98876,-0.60867 -1.22172,-0.15509 -2.727,-0.26996 -4.68742,-0.36553 -1.96041,-0.0956 -4.37575,-0.17157 -7.41981,-0.25141 l -13.87038,-0.36388 0.59709,-9.67916 c 0.1524,-2.47485 0.36948,-4.86763 0.65995,-7.20149 0.29046,-2.33385 0.65349,-4.60951 1.0999,-6.85083 0.44641,-2.24133 0.97588,-4.44847 1.5961,-6.64574 0.62022,-2.19727 1.33167,-4.38451 2.14358,-6.5862 0.81191,-2.20169 1.72415,-4.41763 2.74562,-6.67221 1.02148,-2.25457 2.1517,-4.54782 3.40061,-6.90376 1.24892,-2.35594 2.61595,-4.7751 4.11017,-7.28087 1.49423,-2.50578 3.11525,-5.0978 4.87267,-7.80189 2.08399,-3.20657 4.36005,-6.88363 6.34802,-10.22498 1.98797,-3.34134 3.68902,-6.34736 4.62125,-8.21042 0.81636,-1.63147 1.58194,-3.28458 2.2974,-4.95536 0.71546,-1.67077 1.37947,-3.35921 1.99141,-5.05791 0.61193,-1.69869 1.17301,-3.40883 1.6788,-5.12406 0.50578,-1.71523 0.95761,-3.43511 1.35462,-5.1555 0.39701,-1.72038 0.73821,-3.44134 1.02382,-5.15549 0.2856,-1.71416 0.51483,-3.42256 0.68641,-5.11911 0.17157,-1.69654 0.2858,-3.38043 0.34072,-5.04798 0.0549,-1.66756 0.0511,-3.31826 -0.0132,-4.94544 -0.0604,-1.52695 -0.12013,-2.71773 -0.20675,-3.66856 -0.0866,-0.95083 -0.20103,-1.66134 -0.37215,-2.22958 -0.0856,-0.28411 -0.18507,-0.53277 -0.30268,-0.75753 -0.11761,-0.22475 -0.25325,-0.4257 -0.41019,-0.61528 -0.31389,-0.37917 -0.71398,-0.71298 -1.22892,-1.0966 -0.3205,-0.23876 -0.64951,-0.44086 -0.98578,-0.60867 -0.33627,-0.1678 -0.67985,-0.30121 -1.02713,-0.39861 -0.34727,-0.0974 -0.69842,-0.15934 -1.05194,-0.1869 -0.35351,-0.0276 -0.70852,-0.0202 -1.06351,0.0215 -0.355,0.0417 -0.71016,0.1178 -1.06187,0.22825 -0.3517,0.11045 -0.70001,0.25474 -1.04367,0.43335 -0.34365,0.17861 -0.6814,0.39222 -1.01224,0.63844 -0.33084,0.24622 -0.65433,0.52531 -0.96758,0.83857 -0.29996,0.29997 -0.55458,0.66692 -0.77242,1.15614 -0.21784,0.48923 -0.3993,1.10183 -0.55739,1.89217 -0.1581,0.79035 -0.29277,1.75898 -0.4135,2.9623 -0.12073,1.20333 -0.22837,2.64003 -0.33411,4.3682 -0.0844,1.37931 -0.20411,2.77468 -0.35892,4.17633 -0.15481,1.40165 -0.34352,2.80941 -0.56401,4.21437 -0.22048,1.40496 -0.4728,2.80693 -0.75422,4.19618 -0.28142,1.38925 -0.59193,2.76723 -0.92954,4.12175 -0.33761,1.35451 -0.70257,2.68701 -1.09164,3.98777 -0.38906,1.30076 -0.80306,2.56958 -1.23884,3.79757 -0.43577,1.22798 -0.89341,2.41493 -1.37116,3.55112 -0.47774,1.13619 -0.97527,2.22142 -1.49024,3.24679 -0.86904,1.73035 -2.52202,4.6366 -4.48563,7.92593 -1.96361,3.28932 -4.2378,6.96133 -6.34802,10.22167 -2.28546,3.53107 -4.30176,6.76821 -6.09497,9.79991 -1.7932,3.0317 -3.36306,5.85775 -4.75357,8.56437 -0.69525,1.35331 -1.34531,2.67644 -1.95667,3.98116 -0.61137,1.30472 -1.18479,2.59077 -1.72346,3.86869 -0.53867,1.27791 -1.04285,2.54783 -1.52002,3.82072 -0.47717,1.27289 -0.92776,2.54926 -1.35462,3.83892 -0.36119,1.09126 -0.72565,2.32031 -1.08833,3.6487 -0.36268,1.32839 -0.7226,2.75597 -1.07344,4.24746 -0.70168,2.98297 -1.36575,6.21837 -1.94013,9.40956 -0.57439,3.19119 -1.05879,6.33775 -1.39928,9.14492 -0.17024,1.40359 -0.30517,2.72342 -0.39696,3.91996 -0.0918,1.19655 -0.14059,2.27013 -0.14059,3.18559 v 4.97521 h -17.658 -17.65968 l -0.50777,-7.40988 c -0.14472,-2.10798 -0.33642,-4.19949 -0.57228,-6.27194 -0.23586,-2.07245 -0.51642,-4.1252 -0.84189,-6.15616 -0.32546,-2.03097 -0.69465,-4.04032 -1.10817,-6.02384 -0.41352,-1.98352 -0.87113,-3.94156 -1.37116,-5.87168 -0.50003,-1.93011 -1.04252,-3.83221 -1.62753,-5.70296 -0.585,-1.87075 -1.21216,-3.71065 -1.88059,-5.51607 -0.66843,-1.80541 -1.37838,-3.57684 -2.12869,-5.31097 -0.75031,-1.73412 -1.54117,-3.4308 -2.37182,-5.08768 -0.99239,-1.97949 -2.77558,-5.13739 -4.84785,-8.63053 -2.07228,-3.49314 -4.43445,-7.32135 -6.5862,-10.64178 -2.19753,-3.39107 -4.16307,-6.56143 -5.90475,-9.527 -1.74169,-2.96557 -3.25817,-5.72632 -4.56006,-8.29808 -0.65095,-1.28588 -1.24892,-2.5248 -1.79293,-3.71818 -0.544,-1.19337 -1.03464,-2.34209 -1.47371,-3.44692 -0.43906,-1.10482 -0.82661,-2.16535 -1.16275,-3.18559 -0.33614,-1.02023 -0.62156,-1.99953 -0.85677,-2.93914 -0.43167,-1.72439 -0.83204,-3.58138 -1.19087,-5.4896 -0.35884,-1.90822 -0.67602,-3.86681 -0.93947,-5.79394 -0.26346,-1.92713 -0.47306,-3.8226 -0.6186,-5.60372 -0.14553,-1.78113 -0.22648,-3.44877 -0.23155,-4.91897 -0.003,-0.92602 -0.0314,-1.71905 -0.091,-2.40656 -0.0596,-0.68752 -0.15036,-1.26971 -0.28118,-1.77639 -0.13082,-0.50669 -0.30074,-0.93638 -0.5177,-1.31989 -0.21697,-0.38351 -0.48089,-0.72071 -0.79888,-1.0387 -0.32954,-0.32955 -0.66659,-0.62351 -1.00894,-0.88324 -0.34234,-0.25972 -0.69064,-0.48542 -1.04201,-0.67483 -0.35137,-0.1894 -0.70525,-0.34287 -1.06186,-0.46146 -0.35662,-0.11859 -0.71537,-0.20248 -1.07344,-0.24975 -0.35808,-0.0473 -0.71603,-0.0576 -1.07179,-0.0331 z"
           style="fill:#767676;stroke:none;stroke-width:3.59685;stroke-opacity:1"
           id="path14" /><path
           d="m 233.73108,352.19697 0.35065,4.83628 c 0.11563,0.84359 0.26531,1.65351 0.44823,2.43137 0.18292,0.77785 0.40045,1.52255 0.65168,2.23619 0.25122,0.71365 0.53622,1.39668 0.85676,2.04765 0.32055,0.65096 0.67594,1.27092 1.06683,1.86074 0.39088,0.58982 0.81795,1.14859 1.28019,1.6788 0.46224,0.53021 0.9606,1.03135 1.49521,1.50348 0.5346,0.47212 1.10555,0.91589 1.71353,1.33146 0.60799,0.41558 1.25279,0.80386 1.93518,1.16441 0.28095,0.14845 0.63811,0.28056 1.15283,0.39861 0.51472,0.11806 1.18631,0.22144 2.09395,0.31261 1.81529,0.18235 4.57642,0.31426 8.91833,0.41019 4.34191,0.0959 10.2655,0.15587 18.40728,0.19352 8.14178,0.0376 18.50042,0.0537 31.7153,0.0612 l 59.74883,0.0331 3.93815,-2.49587 c 0.55617,-0.35271 1.09366,-0.73208 1.60934,-1.13464 0.51567,-0.40256 1.00905,-0.82983 1.47701,-1.28184 0.46796,-0.45202 0.91018,-0.92799 1.32319,-1.42905 0.41302,-0.50106 0.79703,-1.02656 1.14788,-1.57626 0.35084,-0.5497 0.66794,-1.12386 0.94939,-1.7218 0.28145,-0.59795 0.52623,-1.21993 0.73106,-1.86571 0.20483,-0.64578 0.37025,-1.31473 0.49124,-2.00794 0.12098,-0.69322 0.19833,-1.40994 0.22825,-2.15019 l 0.18194,-4.49555 -72.21331,0.34072 z"
           style="fill:#767676;stroke-width:3.59685"
           id="path13" /><path
           d="m 233.79063,320.19222 v 9.31529 9.31528 h 71.98175 71.98174 v -9.31528 -9.31529 h -71.98174 z"
           style="fill:#767676;stroke-width:3.59685"
           id="path12" /><path
           style="fill:#606060;fill-opacity:1;stroke-width:3.59685"
           d="m 293.06914,427.46169 c -3.40973,-0.88617 -3.8382,-1.27289 -4.07108,-3.67438 l -0.26027,-2.68398 4.07107,1.29262 c 5.45451,1.73188 20.47137,1.73188 25.92587,0 l 4.07108,-1.29262 -0.26028,2.68398 c -0.23288,2.40149 -0.66135,2.78821 -4.07107,3.67438 -2.09594,0.54472 -7.81214,0.9904 -12.70266,0.9904 -4.89053,0 -10.60672,-0.44568 -12.70266,-0.9904 z m 47.84669,-18.35071 c 0.84302,-0.93153 1.7233,-1.69369 1.95619,-1.69369 0.23288,0 -0.26633,0.76216 -1.10935,1.69369 -0.84302,0.93153 -1.72331,1.69369 -1.95619,1.69369 -0.23288,0 0.26632,-0.76216 1.10935,-1.69369 z m -71.66635,-0.63513 c -1.05336,-1.34314 -1.02341,-1.37309 0.31973,-0.31973 0.81509,0.63924 1.48198,1.30613 1.48198,1.48198 0,0.69698 -0.69542,0.24838 -1.80171,-1.16225 z m 10.90528,-35.56698 c 14.08937,-0.13036 37.1447,-0.13036 51.23407,0 14.08937,0.13036 2.5617,0.23702 -25.61703,0.23702 -28.17874,0 -39.7064,-0.10666 -25.61704,-0.23702 z m -10.58555,-20.32449 c 19.91142,-0.12657 52.49375,-0.12657 72.40517,0 19.91142,0.12658 3.62026,0.23014 -36.20258,0.23014 -39.82285,0 -56.11401,-0.10356 -36.20259,-0.23014 z"
           id="path6" /><path
           style="fill:#494949;fill-opacity:1;stroke-width:3.59685"
           d="m 297.88589,423.47186 c -12.77919,-1.98259 -26.98976,-11.50653 -34.59607,-23.18634 -3.55573,-5.45998 -6.9677,-15.27308 -7.75222,-22.29606 l -0.49665,-4.44593 h 50.73085 50.73084 l -0.49664,4.44593 c -0.78103,6.99162 -4.18906,16.82154 -7.73004,22.29606 -6.37052,9.84911 -19.37066,19.41563 -30.22492,22.24186 -5.17999,1.34876 -14.68859,1.79412 -20.16515,0.94448 z m -64.09584,-77.87418 v -6.77476 h 71.98175 71.98174 v 6.77476 6.77475 H 305.7718 233.79005 Z m 0,-32.6035 v -7.19817 h 71.98175 71.98174 v 7.19817 7.19818 H 305.7718 233.79005 Z"
           id="path5" /></g><path
         d="m 206.29107,154.93124 c 0.2,-0.10708 1.29927,-1.34154 2.44291,-2.74341 l 2.07932,-2.54889 2.09323,2.59243 c 2.19349,2.71655 2.73333,3.12382 3.69241,2.7855 0.33329,-0.1176 1.57535,-1.49371 3.42396,-3.79356 2.44177,-3.03782 2.90093,-3.71275 2.90093,-4.2644 0,-1.24836 -1.60962,-2.10947 -2.55168,-1.36507 -0.16586,0.13114 -1.2059,1.36336 -2.31112,2.73839 l -2.00948,2.50002 -1.67963,-2.10871 c -2.51073,-3.15214 -2.75248,-3.38049 -3.57875,-3.38049 -0.82602,0 -1.06857,0.22899 -3.57324,3.37364 l -1.67413,2.10188 -2.01726,-2.4932 c -1.10948,-1.37124 -2.15196,-2.60042 -2.31663,-2.73153 -0.51697,-0.4116 -1.54175,-0.29793 -2.06917,0.22956 -0.95448,0.95451 -0.75482,1.42385 2.16797,5.09595 1.4561,1.82938 2.86955,3.52425 3.14101,3.76638 0.52531,0.4685 1.24364,0.56446 1.83935,0.24563 z"
         style="fill:#fff2d1;fill-opacity:1;stroke-width:1.02062"
         id="path1-0" /></g></g></svg>
