<?xml version="1.0" encoding="UTF-8" standalone="no"?>
<svg
   viewBox="0 0 420 264"
   enable-background="new 0 0 64 64"
   version="1.1"
   id="svg1"
   sodipodi:docname="not allowed.svg"
   width="420"
   height="264"
   inkscape:version="1.3 (0e150ed6c4, 2023-07-21)"
   inkscape:export-filename="not allowed.png"
   inkscape:export-xdpi="96"
   inkscape:export-ydpi="96"
   xmlns:inkscape="http://www.inkscape.org/namespaces/inkscape"
   xmlns:sodipodi="http://sodipodi.sourceforge.net/DTD/sodipodi-0.dtd"
   xmlns="http://www.w3.org/2000/svg"
   xmlns:svg="http://www.w3.org/2000/svg">
  <defs
     id="defs1" />
  <sodipodi:namedview
     id="namedview1"
     pagecolor="#ffffff"
     bordercolor="#000000"
     borderopacity="0.25"
     inkscape:showpageshadow="2"
     inkscape:pageopacity="0.0"
     inkscape:pagecheckerboard="0"
     inkscape:deskcolor="#d1d1d1"
     inkscape:zoom="1.7558594"
     inkscape:cx="207.59065"
     inkscape:cy="148.92992"
     inkscape:window-width="1920"
     inkscape:window-height="1137"
     inkscape:window-x="-8"
     inkscape:window-y="-8"
     inkscape:window-maximized="1"
     inkscape:current-layer="svg1" />
  <path
     d="M 210,12 C 143.728,12 90,65.728 90,132.004 90,198.268 143.728,252 210,252 276.272,252 330,198.268 330,132.004 330,65.728 276.272,12 210,12 Z m 88,120.004 c 0,18.516 -5.73199,35.688 -15.504,49.86 L 160.132,59.504001 c 14.176,-9.772001 31.348,-15.504 49.868,-15.504 48.6,0 88,39.403999 88,88.003999 z m -176,0 c 0,-18.52 5.736,-35.695999 15.504,-49.872 l 122.364,122.364 c -14.172,9.77201 -31.348,15.50801 -49.868,15.50801 -48.6,0 -88,-39.40801 -88,-88.00001 z"
     fill="#e53935"
     id="path1"
     style="fill:#d62127;fill-opacity:1;stroke-width:0.999999" />
</svg>
