<?xml version="1.0" encoding="UTF-8" standalone="no"?>
<svg
   viewBox="0 0 420 264"
   enable-background="new 0 0 64 64"
   version="1.1"
   id="svg1"
   sodipodi:docname="over-temp.svg"
   width="420"
   height="264"
   inkscape:version="1.3 (0e150ed6c4, 2023-07-21)"
   inkscape:export-filename="over-temp.png"
   inkscape:export-xdpi="96"
   inkscape:export-ydpi="96"
   xml:space="preserve"
   xmlns:inkscape="http://www.inkscape.org/namespaces/inkscape"
   xmlns:sodipodi="http://sodipodi.sourceforge.net/DTD/sodipodi-0.dtd"
   xmlns="http://www.w3.org/2000/svg"
   xmlns:svg="http://www.w3.org/2000/svg"><defs
     id="defs1" /><sodipodi:namedview
     id="namedview1"
     pagecolor="#ffffff"
     bordercolor="#000000"
     borderopacity="0.25"
     inkscape:showpageshadow="2"
     inkscape:pageopacity="0.0"
     inkscape:pagecheckerboard="0"
     inkscape:deskcolor="#d1d1d1"
     inkscape:zoom="1.4142136"
     inkscape:cx="199.75766"
     inkscape:cy="138.94648"
     inkscape:window-width="1920"
     inkscape:window-height="1137"
     inkscape:window-x="-8"
     inkscape:window-y="-8"
     inkscape:window-maximized="1"
     inkscape:current-layer="g16" /><g
     inkscape:groupmode="layer"
     id="layer1"
     inkscape:label="Layer 1"><g
       id="g15"
       transform="matrix(0.49212598,0,0,0.49212598,85.000001,1.08e-6)"
       style="stroke-width:3.20001"><g
         id="g16"
         transform="matrix(1.1510563,0,0,1.1510563,-42.953247,-37.235811)"
         style="stroke-width:8.82671"><g
           id="g23"
           transform="matrix(0.60621557,0,0,0.58196694,121.59991,113.58576)"
           style="stroke-width:14.8605"><path
             style="fill:#cae8f9;fill-opacity:1;stroke-width:14.8605"
             d="M 214.34148,623.95288 C 54.181779,614.70845 -10.361362,407.74232 116.54832,310.36618 l 11.02396,-8.45854 0.0247,-158.8944 c 0.0278,-178.773673 -0.5043,-169.319288 10.82023,-192.260401 14.29093,-28.950389 42.96113,-48.973944 75.04388,-52.411379 l 10.83751,-1.16116 V -49.037702 4.7443004 H 206.51803 188.73745 V 26.080989 47.417677 h 17.78058 17.78057 v 17.780574 17.780573 h -17.81762 -17.81763 l 0.39266,21.692296 0.39266,21.6923 17.42497,0.3994 17.42496,0.39939 v 17.73679 17.73679 h -17.81762 -17.81763 l 0.39266,21.6923 0.39266,21.6923 17.42497,0.3994 17.42496,0.39939 v 21.29291 21.2929 h -10.66834 -10.66835 v 47.49364 47.49363 l -5.33217,1.00032 c -14.03312,2.63263 -35.57386,14.93715 -48.36662,27.62802 -63.119518,62.6168 -26.02735,170.00827 62.58908,181.21161 l 12.4464,1.57354 v 34.56248 c 0,19.00936 -0.48008,34.44407 -1.06684,34.29935 -0.58675,-0.14472 -4.58738,-0.46633 -8.89028,-0.7147 z"
             id="path42" /><path
             style="fill:#e0e0e0;fill-opacity:1;stroke-width:14.8605"
             d="m 146.06408,375.46563 c 0,-0.29538 1.12017,-1.41556 2.48928,-2.48928 2.25607,-1.76934 2.30639,-1.71903 0.53705,0.53705 -1.85824,2.36943 -3.02633,3.12295 -3.02633,1.95223 z"
             id="path41" /><path
             style="fill:#dedede;fill-opacity:1;stroke-width:14.8605"
             d="m 189.30635,184.68371 c 0.002,-11.73518 0.22231,-16.34666 0.48959,-10.24772 0.26728,6.09893 0.26565,15.70044 -0.004,21.33669 -0.26928,5.63624 -0.48797,0.6462 -0.48597,-11.08897 z m 0,-79.65697 c 0.002,-11.735183 0.22231,-16.346656 0.48959,-10.247723 0.26728,6.098933 0.26565,15.700443 -0.004,21.336693 -0.26928,5.63624 -0.48797,0.6462 -0.48597,-11.08897 z m 0.004,-78.945751 c 0,-12.126351 0.21816,-17.0871315 0.4848,-11.023956 0.26664,6.063176 0.26664,15.984736 0,22.047911 -0.26664,6.063176 -0.4848,1.102396 -0.4848,-11.023955 z"
             id="path40" /><path
             style="fill:#dbdbdb;fill-opacity:1;stroke-width:14.8605"
             d="m 321.71113,146.98889 c 0,-84.884459 0.17116,-119.609919 0.38037,-77.16769 0.2092,42.44223 0.2092,111.89315 0,154.33538 -0.20921,42.44223 -0.38037,7.71677 -0.38037,-77.16769 z"
             id="path39" /><path
             style="fill:#d8d8d8;fill-opacity:1;stroke-width:14.8605"
             d="m 350.04991,325.86146 -2.70974,-3.2005 3.2005,2.70974 c 1.76028,1.49036 3.20051,2.93058 3.20051,3.2005 0,1.13832 -1.14478,0.29794 -3.69127,-2.70974 z"
             id="path38" /><path
             style="fill:#d2d2d2;fill-opacity:1;stroke-width:14.8605"
             d="m 231.05522,623.98865 c 0.97793,-0.3946 2.57818,-0.3946 3.55611,0 0.97793,0.39461 0.17781,0.71746 -1.77806,0.71746 -1.95586,0 -2.75598,-0.32285 -1.77805,-0.71746 z m 116.28495,-50.26599 c 1.41602,-1.56469 2.89464,-2.84489 3.28581,-2.84489 0.39118,0 -0.44734,1.2802 -1.86337,2.84489 -1.41602,1.56469 -2.89464,2.84489 -3.28581,2.84489 -0.39117,0 0.44734,-1.2802 1.86337,-2.84489 z m 52.14387,-116.64057 c 0,-1.95586 0.32286,-2.75598 0.71746,-1.77805 0.39461,0.97793 0.39461,2.57818 0,3.55611 -0.3946,0.97793 -0.71746,0.17781 -0.71746,-1.77806 z m -0.1123,-15.05421 c 0.0683,-1.65707 0.40531,-1.99413 0.8594,-0.8594 0.4109,1.02683 0.36037,2.25369 -0.1123,2.72636 -0.47267,0.47266 -0.80886,-0.36747 -0.7471,-1.86696 z m -107.64211,-517.296161 -2.70974,-3.200503 3.2005,2.709741 c 1.76028,1.490358 3.2005,2.930585 3.2005,3.200504 0,1.138316 -1.14477,0.297941 -3.69126,-2.709742 z m -60.58551,-27.642549 c 1.02683,-0.41091 2.25369,-0.36037 2.72635,0.11229 0.47267,0.47267 -0.36746,0.80886 -1.86696,0.7471 -1.65706,-0.0683 -1.99412,-0.40531 -0.85939,-0.85939 z"
             id="path37" /><path
             style="fill:#cacaca;fill-opacity:1;stroke-width:14.8605"
             d="m 226.87678,623.95902 c 1.02683,-0.41091 2.25369,-0.36037 2.72636,0.1123 0.47266,0.47266 -0.36747,0.80886 -1.86696,0.74709 -1.65707,-0.0682 -1.99413,-0.40531 -0.8594,-0.85939 z M 399.37174,451.985 c 0.0683,-1.65707 0.40531,-1.99413 0.8594,-0.8594 0.4109,1.02683 0.36037,2.25369 -0.1123,2.72636 -0.47267,0.47266 -0.80886,-0.36747 -0.7471,-1.86696 z M 198.33896,205.67844 c 4.88966,-0.27776 12.89092,-0.27776 17.78058,0 4.88965,0.27776 0.88902,0.50502 -8.89029,0.50502 -9.77932,0 -13.77995,-0.22726 -8.89029,-0.50502 z m 0,-79.65697 c 4.88966,-0.27776 12.89092,-0.27776 17.78058,0 4.88965,0.27776 0.88902,0.50502 -8.89029,0.50502 -9.77932,0 -13.77995,-0.22726 -8.89029,-0.50502 z m 28.53782,-228.9323 c 1.02683,-0.41091 2.25369,-0.36037 2.72636,0.11229 0.47266,0.47267 -0.36747,0.80886 -1.86696,0.7471 -1.65707,-0.0683 -1.99413,-0.40531 -0.8594,-0.85939 z"
             id="path36" /><path
             style="fill:#84caff;fill-opacity:1;stroke-width:14.8605"
             d="m 224.2986,589.96959 v -34.32734 l 9.15795,-0.85519 c 89.4745,-8.35525 129.6787,-116.98484 66.90388,-180.77068 -13.41588,-13.63194 -34.59071,-25.91057 -49.39097,-28.6403 l -5.33417,-0.98382 V 296.89863 249.40499 H 234.96694 224.2986 v -21.33668 -21.33669 h 17.78057 17.78058 V 184.68371 162.63579 H 242.07917 224.2986 v -17.78057 -17.78057 h 17.78057 17.78058 V 105.02674 82.978824 H 242.07917 224.2986 V 65.198251 47.417677 h 17.78057 17.78058 V 26.080989 4.7443004 H 242.07917 224.2986 V -49.037702 -102.8197 l 10.43359,1.11788 c 32.8448,3.519087 60.94527,23.074234 75.48536,52.530339 11.2814,22.85446 10.75489,13.470244 10.78267,192.184721 l 0.0247,158.8944 11.02396,8.45854 c 125.56873,96.34724 64.3499,301.17388 -93.51256,312.87538 l -14.23772,1.05537 z"
             id="path35" /><path
             style="fill:#c2c2c2;fill-opacity:1;stroke-width:14.8605"
             d="m 298.97701,523.93705 c 1.41602,-1.56469 2.89464,-2.84489 3.28581,-2.84489 0.39118,0 -0.44734,1.2802 -1.86337,2.84489 -1.41602,1.56469 -2.89464,2.84489 -3.28581,2.84489 -0.39117,0 0.44734,-1.2802 1.86337,-2.84489 z m -0.13515,-151.13487 -2.70974,-3.20051 3.2005,2.70974 c 3.00768,2.54649 3.84806,3.69127 2.70974,3.69127 -0.26992,0 -1.71014,-1.44023 -3.2005,-3.2005 z"
             id="path34" /><path
             style="fill:#b9b9b9;fill-opacity:1;stroke-width:14.8605"
             d="m 259.0062,184.68371 c 0.002,-11.73518 0.2223,-16.34666 0.48959,-10.24772 0.26728,6.09893 0.26565,15.70044 -0.004,21.33669 -0.26927,5.63624 -0.48796,0.6462 -0.48596,-11.08897 z m 0,-79.65697 c 0.002,-11.735183 0.2223,-16.346656 0.48959,-10.247723 0.26728,6.098933 0.26565,15.700443 -0.004,21.336693 -0.26927,5.63624 -0.48796,0.6462 -0.48596,-11.08897 z m 0.004,-78.945751 c 0,-12.126351 0.21816,-17.0871315 0.4848,-11.023956 0.26664,6.063176 0.26664,15.984736 0,22.047911 -0.26664,6.063176 -0.4848,1.102396 -0.4848,-11.023955 z"
             id="path33" /><path
             style="fill:#aeaeae;fill-opacity:1;stroke-width:14.8605"
             d="m 117.83975,448.54742 c 0,-1.95586 0.32286,-2.75599 0.71747,-1.77806 0.3946,0.97793 0.3946,2.57818 0,3.55612 -0.39461,0.97793 -0.71747,0.1778 -0.71747,-1.77806 z m 80.49921,-285.54235 c 4.88966,-0.27777 12.89092,-0.27777 17.78058,0 4.88965,0.27776 0.88902,0.50502 -8.89029,0.50502 -9.77932,0 -13.77995,-0.22726 -8.89029,-0.50502 z m 0,-79.656974 c 4.88966,-0.277762 12.89092,-0.277762 17.78058,0 4.88965,0.277762 0.88902,0.505022 -8.89029,0.505022 -9.77932,0 -13.77995,-0.22726 -8.89029,-0.505022 z"
             id="path32" /><path
             style="fill:#a6a6a6;fill-opacity:1;stroke-width:14.8605"
             d="m 208.33368,249.78408 c 3.34565,-0.30048 8.46645,-0.29626 11.37957,0.009 2.91311,0.30566 0.17577,0.55151 -6.08299,0.54634 -6.25877,-0.005 -8.64222,-0.25524 -5.29658,-0.55573 z m 24.14398,-44.10564 c 4.88966,-0.27776 12.89092,-0.27776 17.78058,0 4.88965,0.27776 0.88903,0.50502 -8.89029,0.50502 -9.77932,0 -13.77994,-0.22726 -8.89029,-0.50502 z m 0,-79.65697 c 4.88966,-0.27776 12.89092,-0.27776 17.78058,0 4.88965,0.27776 0.88903,0.50502 -8.89029,0.50502 -9.77932,0 -13.77994,-0.22726 -8.89029,-0.50502 z"
             id="path31" /><path
             style="fill:#fec000;fill-opacity:1;stroke-width:14.8605"
             d="m 190.1599,184.68371 v -20.62547 h 17.06935 17.06935 v 20.62547 20.62546 H 207.22925 190.1599 Z m 0,-79.65697 V 84.40127 h 17.06935 17.06935 v 20.62547 20.62546 H 207.22925 190.1599 Z m 0,-78.945751 V 4.7443004 h 17.06935 17.06935 V 26.080989 47.417677 H 207.22925 190.1599 Z"
             id="path30" /><path
             style="fill:#8c8c8c;fill-opacity:1;stroke-width:14.8605"
             d="m 232.47766,163.00507 c 4.88966,-0.27777 12.89092,-0.27777 17.78058,0 4.88965,0.27776 0.88903,0.50502 -8.89029,0.50502 -9.77932,0 -13.77994,-0.22726 -8.89029,-0.50502 z m 0,-79.656974 c 4.88966,-0.277762 12.89092,-0.277762 17.78058,0 4.88965,0.277762 0.88903,0.505022 -8.89029,0.505022 -9.77932,0 -13.77994,-0.22726 -8.89029,-0.505022 z"
             id="path29" /><path
             style="fill:#ff8900;fill-opacity:1;stroke-width:14.8605"
             d="m 224.2986,184.68371 v -20.62547 h 17.06935 17.06935 v 20.62547 20.62546 H 241.36795 224.2986 Z m 0,-79.65697 V 84.40127 h 17.06935 17.06935 v 20.62547 20.62546 H 241.36795 224.2986 Z m 0,-78.945751 V 4.7443004 h 17.06935 17.06935 V 26.080989 47.417677 H 241.36795 224.2986 Z"
             id="path28" /><path
             style="fill:#797979;fill-opacity:1;stroke-width:14.8605"
             d="m 329.78419,448.54742 c 0,-1.95586 0.32286,-2.75599 0.71746,-1.77806 0.39461,0.97793 0.39461,2.57818 0,3.55612 -0.3946,0.97793 -0.71746,0.1778 -0.71746,-1.77806 z"
             id="path27" /><path
             style="fill:#707070;fill-opacity:1;stroke-width:14.8605"
             d="m 229.67037,249.78408 c 3.34565,-0.30048 8.46645,-0.29626 11.37957,0.009 2.91311,0.30566 0.17577,0.55151 -6.083,0.54634 -6.25876,-0.005 -8.64222,-0.25524 -5.29657,-0.55573 z"
             id="path26" /><path
             style="fill:#ff3800;fill-opacity:1;stroke-width:14.8605"
             d="M 206.89268,552.3393 C 98.367923,534.06551 89.618541,374.64252 195.64901,347.46773 l 7.3129,-1.87424 v -47.38303 -47.38302 h 10.66835 10.66834 v 151.49049 151.49049 l -5.33417,-0.16731 c -2.9338,-0.092 -8.36608,-0.67783 -12.07175,-1.30181 z m 88.34677,-181.67079 c -1.76934,-2.25608 -1.71902,-2.30639 0.53706,-0.53706 2.36943,1.85824 3.12295,3.02634 1.95222,3.02634 -0.29537,0 -1.41555,-1.12018 -2.48928,-2.48928 z"
             id="path25" /><path
             style="fill:#5a5a5a;fill-opacity:1;stroke-width:14.8605"
             d="m 328.24945,434.91565 c 0.0682,-1.65707 0.40531,-1.99413 0.85939,-0.8594 0.41091,1.02683 0.36037,2.25369 -0.1123,2.72636 -0.47266,0.47266 -0.80886,-0.36747 -0.74709,-1.86696 z"
             id="path24" /><path
             style="fill:#c2001b;fill-opacity:1;stroke-width:14.8605"
             d="M 224.2986,402.50172 V 250.82744 h 10.66834 10.66835 v 47.38302 47.38303 l 7.3129,1.87424 c 109.89808,28.16603 94.93397,194.53066 -18.50299,205.70845 l -10.1466,0.99982 z"
             id="path23" /></g></g></g></g></svg>
