<?xml version="1.0" encoding="UTF-8" standalone="no"?>
<svg
   viewBox="0 0 420 264"
   enable-background="new 0 0 64 64"
   version="1.1"
   id="svg1"
   sodipodi:docname="question.svg"
   width="420"
   height="264"
   inkscape:version="1.3 (0e150ed6c4, 2023-07-21)"
   inkscape:export-filename="question.png"
   inkscape:export-xdpi="96"
   inkscape:export-ydpi="96"
   xml:space="preserve"
   xmlns:inkscape="http://www.inkscape.org/namespaces/inkscape"
   xmlns:sodipodi="http://sodipodi.sourceforge.net/DTD/sodipodi-0.dtd"
   xmlns="http://www.w3.org/2000/svg"
   xmlns:svg="http://www.w3.org/2000/svg"><defs
     id="defs1" /><sodipodi:namedview
     id="namedview1"
     pagecolor="#ffffff"
     bordercolor="#000000"
     borderopacity="0.25"
     inkscape:showpageshadow="2"
     inkscape:pageopacity="0.0"
     inkscape:pagecheckerboard="0"
     inkscape:deskcolor="#d1d1d1"
     inkscape:zoom="2"
     inkscape:cx="181.25"
     inkscape:cy="119.25"
     inkscape:window-width="1920"
     inkscape:window-height="1137"
     inkscape:window-x="-8"
     inkscape:window-y="-8"
     inkscape:window-maximized="1"
     inkscape:current-layer="g15" /><g
     inkscape:groupmode="layer"
     id="layer1"
     inkscape:label="Layer 1"><g
       id="g15"
       transform="matrix(0.49212598,0,0,0.49212598,85.000001,1.08e-6)"
       style="stroke-width:3.20001"><g
         id="g1"
         transform="matrix(0.96000001,0,0,0.96000001,10.159998,24.383998)"
         style="stroke-width:3.33334"><circle
           style="fill:#61f5b5;fill-opacity:1;stroke-width:3.33334"
           cx="254"
           cy="254"
           r="254"
           id="circle1" /><path
           style="fill:#ffffff;stroke-width:3.33334"
           d="m 254,96.8 c -86.8,0 -157.2,70.4 -157.2,157.2 0,27.2 6.9,52.8 19.1,75.1 l -19.1,82.1 82.1,-19.1 c 22.3,12.2 47.9,19.1 75.1,19.1 86.8,0 157.2,-70.4 157.2,-157.2 C 411.2,167.2 340.8,96.8 254,96.8 Z"
           id="path1" /><path
           style="fill:#738394;fill-opacity:1;stroke-width:3.33334"
           d="m 273.59022,301.37634 h -39.04717 v -21.05616 c 0,-9.1954 1.06613,-16.12528 3.33167,-20.52308 2.13227,-4.53106 6.92988,-10.3948 14.39282,-17.72447 l 25.18741,-25.18742 c 5.33067,-5.73046 7.996,-12.92689 7.996,-21.45594 0,-8.52908 -2.79859,-15.59222 -8.26253,-21.18942 -5.59721,-5.59721 -12.66034,-8.52908 -21.45595,-8.52908 -8.7956,0 -15.99202,2.66533 -21.98902,8.12928 -5.86373,5.46393 -9.32868,12.66034 -10.26154,21.58922 h -41.84577 c 2.26554,-20.52309 10.26155,-36.5151 23.98802,-48.10931 13.72648,-11.59421 30.78462,-17.45796 51.30771,-17.45796 20.52308,0 37.18143,5.59721 50.10831,16.79162 12.92688,11.19441 19.32368,26.78663 19.32368,46.77664 0,13.85974 -3.73147,25.32069 -11.32767,34.51609 -4.39781,5.46394 -7.72948,9.46195 -9.99501,11.72748 -2.26554,2.26554 -5.33067,5.19741 -9.19541,8.79561 -3.86474,3.5982 -7.06314,6.66334 -9.72848,9.32867 -2.66533,2.66533 -4.7976,4.93087 -6.3968,6.7966 -4.13127,5.06415 -6.26354,12.26055 -6.26354,21.45596 v 15.32568 z M 254.79961,378.138 c -7.19642,0 -13.45995,-2.53207 -18.79063,-7.46294 -5.33067,-4.93087 -7.996,-10.92788 -7.996,-17.99101 0,-7.06314 2.53207,-13.06015 7.72948,-18.12429 5.1974,-5.06413 11.46093,-7.5962 18.65735,-7.5962 7.1964,0 13.45993,2.53207 18.79061,7.46294 5.33067,4.93087 7.86274,10.92787 7.86274,17.99101 0,7.06314 -2.53207,13.06015 -7.72948,18.12428 -5.06413,5.06414 -11.32767,7.59621 -18.52407,7.59621 z"
           id="path2" /></g></g></g></svg>
