<?xml version="1.0" encoding="UTF-8" standalone="no"?>
<svg
   version="1"
   viewBox="0 0 420 264"
   enable-background="new 0 0 48 48"
   id="svg1"
   sodipodi:docname="red check.svg"
   width="420"
   height="264"
   inkscape:export-filename="red check.png"
   inkscape:export-xdpi="96"
   inkscape:export-ydpi="96"
   inkscape:version="1.3 (0e150ed6c4, 2023-07-21)"
   xml:space="preserve"
   xmlns:inkscape="http://www.inkscape.org/namespaces/inkscape"
   xmlns:sodipodi="http://sodipodi.sourceforge.net/DTD/sodipodi-0.dtd"
   xmlns="http://www.w3.org/2000/svg"
   xmlns:svg="http://www.w3.org/2000/svg"><defs
     id="defs1" /><sodipodi:namedview
     id="namedview1"
     pagecolor="#ffffff"
     bordercolor="#000000"
     borderopacity="0.25"
     inkscape:showpageshadow="2"
     inkscape:pageopacity="0.0"
     inkscape:pagecheckerboard="0"
     inkscape:deskcolor="#d1d1d1"
     inkscape:zoom="1.6554401"
     inkscape:cx="217.76686"
     inkscape:cy="154.33962"
     inkscape:window-width="1920"
     inkscape:window-height="1137"
     inkscape:window-x="-8"
     inkscape:window-y="-8"
     inkscape:window-maximized="1"
     inkscape:current-layer="g1" /><g
     id="g1"
     transform="matrix(0.52750183,0,0,0.52750183,85,-4.5076476e-7)"
     style="stroke-width:3.20001"><g
       id="g2"
       transform="matrix(0.97560976,0,0,0.97560976,9.4786404,22.748737)"
       style="stroke-width:3.28001"><circle
         style="fill:#d62127;stroke-width:3.28001"
         cx="233.17455"
         cy="233.17455"
         r="233.17455"
         id="circle1" /><path
         style="fill:#f59091;fill-opacity:1;stroke-width:3.28001"
         d="m 273.336,239.589 92.74,-107.658 c 10.114,-11.742 8.793,-29.463 -2.952,-39.577 -11.73,-10.106 -29.451,-8.793 -39.573,2.949 L 236.297,196.589 149.053,95.303 c -10.114,-11.749 -27.835,-13.062 -39.58,-2.949 -11.745,10.113 -13.059,27.835 -2.945,39.577 l 92.732,107.658 -92.732,107.658 c -10.114,11.742 -8.801,29.463 2.945,39.577 5.298,4.565 11.816,6.799 18.308,6.799 7.876,0 15.719,-3.308 21.276,-9.747 L 236.3,282.589 323.55,383.875 c 5.545,6.447 13.388,9.747 21.276,9.747 6.481,0 13.003,-2.238 18.301,-6.799 11.745,-10.114 13.066,-27.835 2.952,-39.577 z"
         id="path1" /></g></g></svg>
