<?xml version="1.0" encoding="UTF-8" standalone="no"?>
<svg
   viewBox="0 0 420 264"
   enable-background="new 0 0 64 64"
   version="1.1"
   id="svg1"
   sodipodi:docname="tools.svg"
   width="420"
   height="264"
   inkscape:version="1.3 (0e150ed6c4, 2023-07-21)"
   inkscape:export-filename="tools.png"
   inkscape:export-xdpi="96"
   inkscape:export-ydpi="96"
   xml:space="preserve"
   xmlns:inkscape="http://www.inkscape.org/namespaces/inkscape"
   xmlns:sodipodi="http://sodipodi.sourceforge.net/DTD/sodipodi-0.dtd"
   xmlns="http://www.w3.org/2000/svg"
   xmlns:svg="http://www.w3.org/2000/svg"><defs
     id="defs1" /><sodipodi:namedview
     id="namedview1"
     pagecolor="#ffffff"
     bordercolor="#000000"
     borderopacity="0.25"
     inkscape:showpageshadow="2"
     inkscape:pageopacity="0.0"
     inkscape:pagecheckerboard="0"
     inkscape:deskcolor="#d1d1d1"
     inkscape:zoom="1.4142136"
     inkscape:cx="161.5739"
     inkscape:cy="5.3033007"
     inkscape:window-width="1920"
     inkscape:window-height="1137"
     inkscape:window-x="-8"
     inkscape:window-y="-8"
     inkscape:window-maximized="1"
     inkscape:current-layer="g15" /><g
     inkscape:groupmode="layer"
     id="layer1"
     inkscape:label="Layer 1"><g
       id="g15"
       transform="matrix(0.49212598,0,0,0.49212598,85.000001,1.08e-6)"
       style="stroke-width:3.20001"><g
         id="g16"
         transform="matrix(0.95165424,0,0,0.95249861,10.16003,24.167543)"
         style="stroke-width:10.662"><path
           style="fill:#e15649;stroke-width:10.662"
           d="M 189.365,251.814 248.51,186.49 71.076,8.172 C 60.483,-2.421 42.828,-2.421 32.235,8.172 L 8.4,32.007 C -2.193,42.6 -2.193,60.255 8.4,70.848 Z"
           id="path1" /><path
           style="fill:#c3c7cb;stroke-width:10.662"
           d="m 470.083,506.931 42.372,5.297 -6.179,-43.255 -38.841,-26.483 -24.717,25.6 z"
           id="path2" /><path
           style="fill:#e0e0e0;stroke-width:10.662"
           d="M 282.055,306.545 443.6,468.09 468.317,443.373 306.772,281.828 Z"
           id="path3" /><path
           style="fill:#bc342e;stroke-width:10.662"
           d="m 194.662,203.262 c -2.648,0 -4.414,-0.883 -6.179,-2.648 L 38.414,50.545 c -3.531,-3.531 -3.531,-8.828 0,-12.359 3.531,-3.531 8.828,-3.531 12.359,0 l 150.069,150.069 c 3.531,3.531 3.531,8.828 0,12.359 -1.766,1.765 -3.532,2.648 -6.18,2.648"
           id="path4" /><path
           style="fill:#7f7c79;stroke-width:10.662"
           d="m 282.055,147.648 c 20.303,-20.303 22.952,-52.083 1.766,-73.269 -41.49,-41.49 -65.324,-37.076 -112.11,-37.076 70.62,-30.896 121.82,-37.958 173.02,-14.124 22.069,9.71 30.897,18.538 48.552,36.193 l 31.779,31.779 c 7.945,7.945 13.241,18.538 15.007,29.131 2.648,16.772 -1.766,20.303 9.71,32.662 3.531,3.531 8.828,3.531 12.359,0 3.531,-3.531 8.828,-3.531 12.359,0 l 30.897,30.897 c 7.062,7.062 7.062,17.655 0,24.717 l -62.676,62.676 c -7.062,7.062 -17.655,7.062 -24.717,0 L 388.87,241.22 c -3.531,-3.531 -3.531,-8.828 0,-12.359 3.531,-3.531 3.531,-9.71 0,-13.241 -12.359,-12.359 -15.89,-7.945 -32.662,-9.71 -11.476,-1.766 -21.186,-7.062 -29.131,-15.007 l -45.022,-43.255"
           id="path5" /><path
           style="fill:#565656;stroke-width:10.662"
           d="M 282.055,147.648 8.4,453.966 c -10.593,10.593 -11.476,28.248 -0.883,37.959 l 12.359,12.359 c 10.593,10.593 27.366,9.71 37.959,-0.883 l 274.538,-307.2 z"
           id="path6" /><path
           style="fill:#e15649;stroke-width:10.662"
           d="m 238.8,300.366 24.717,24.717 62.676,-62.676 -28.248,-28.248 z"
           id="path7" /></g></g></g></svg>
