<?xml version="1.0" encoding="UTF-8" standalone="no"?>
<svg
   viewBox="0 0 420 264"
   enable-background="new 0 0 64 64"
   version="1.1"
   id="svg1"
   sodipodi:docname="low voltage.svg"
   width="420"
   height="264"
   inkscape:version="1.3 (0e150ed6c4, 2023-07-21)"
   inkscape:export-filename="voltage-low.png"
   inkscape:export-xdpi="96"
   inkscape:export-ydpi="96"
   xml:space="preserve"
   xmlns:inkscape="http://www.inkscape.org/namespaces/inkscape"
   xmlns:sodipodi="http://sodipodi.sourceforge.net/DTD/sodipodi-0.dtd"
   xmlns="http://www.w3.org/2000/svg"
   xmlns:svg="http://www.w3.org/2000/svg"><defs
     id="defs1" /><sodipodi:namedview
     id="namedview1"
     pagecolor="#ffffff"
     bordercolor="#000000"
     borderopacity="0.25"
     inkscape:showpageshadow="2"
     inkscape:pageopacity="0.0"
     inkscape:pagecheckerboard="0"
     inkscape:deskcolor="#d1d1d1"
     inkscape:zoom="2"
     inkscape:cx="217.25"
     inkscape:cy="125.75"
     inkscape:window-width="1920"
     inkscape:window-height="1137"
     inkscape:window-x="-8"
     inkscape:window-y="-8"
     inkscape:window-maximized="1"
     inkscape:current-layer="g16" /><g
     inkscape:groupmode="layer"
     id="layer1"
     inkscape:label="Layer 1"><g
       id="g15"
       transform="matrix(0.49212598,0,0,0.49212598,85.000001,1.08e-6)"
       style="stroke-width:3.20001"><g
         id="g16"
         transform="matrix(1.1510563,0,0,1.1510563,-42.953247,-37.235811)"
         style="stroke-width:8.82671"><g
           id="g1"
           transform="matrix(1,0,0,0.99200002,1.9833344,9.656016)"
           style="stroke-width:8.86223"><path
             style="fill:#464655;stroke-width:8.86223"
             d="M 509.435,448.962 271.75,44.367 c -7.076,-12.045 -24.424,-12.045 -31.5,0 L 2.565,448.962 c -7.194,12.245 1.595,27.705 15.75,27.705 h 475.368 c 14.156,-10e-4 22.946,-15.46 15.752,-27.705 z"
             id="path1" /><path
             style="fill:#5b5d6e;stroke-width:8.86223"
             d="m 310.09,109.633 c -75.525,54.5 -124.731,143.208 -124.731,243.46 0,44.069 9.578,85.877 26.64,123.573 h 281.685 c 14.155,0 22.944,-15.459 15.75,-27.705 z"
             id="path2" /><path
             style="fill:#ffdc64;stroke-width:8.86223"
             d="M 252.195,93.738 53.788,431.474 c -2.57,4.374 0.585,9.885 5.658,9.885 h 393.11 c 5.073,0 8.228,-5.511 5.658,-9.885 L 259.805,93.738 c -1.706,-2.904 -5.904,-2.904 -7.61,0 z"
             id="path3" /><path
             style="fill:#ffc850;stroke-width:8.86223"
             d="M 452.556,450.186 H 59.442 c -5.499,0 -10.62,-2.966 -13.353,-7.741 -2.733,-4.78 -2.698,-10.697 0.086,-15.442 L 244.587,89.258 c 2.405,-4.086 6.672,-6.525 11.422,-6.525 4.741,0 9.008,2.439 11.413,6.525 l 198.401,337.744 c 2.784,4.75 2.819,10.667 0.086,15.442 -2.733,4.776 -7.854,7.742 -13.353,7.742 z M 63.399,432.533 H 448.6 L 255.998,104.684 Z"
             id="path5" /><path
             style="fill:#464655;stroke-width:8.86223"
             d="m 289.324,273.756 c -3.172,-2.457 -7.43,-2.991 -11.103,-1.418 l -40.936,17.541 29.462,-110.476 c 1.569,-5.887 -1.931,-11.934 -7.818,-13.507 -5.896,-1.521 -11.93,1.935 -13.507,7.818 l -35.307,132.4 c -1.086,4.081 0.25,8.426 3.448,11.189 3.181,2.758 7.68,3.457 11.56,1.797 l 43.513,-18.649 -10.419,67.737 -10.921,-1.813 12.333,39.986 c 0.914,2.961 4.815,3.609 6.635,1.101 l 24.589,-33.857 -10.868,-1.804 13.484,-87.645 c 0.612,-3.961 -0.973,-7.942 -4.145,-10.4 z"
             id="path7" /></g></g></g></g></svg>
