<?xml version="1.0" encoding="UTF-8" standalone="no"?>
<svg
   viewBox="0 0 420 264"
   enable-background="new 0 0 64 64"
   version="1.1"
   id="svg1"
   sodipodi:docname="warning.svg"
   width="420"
   height="264"
   inkscape:version="1.3 (0e150ed6c4, 2023-07-21)"
   inkscape:export-filename="warning.png"
   inkscape:export-xdpi="96"
   inkscape:export-ydpi="96"
   xml:space="preserve"
   xmlns:inkscape="http://www.inkscape.org/namespaces/inkscape"
   xmlns:sodipodi="http://sodipodi.sourceforge.net/DTD/sodipodi-0.dtd"
   xmlns="http://www.w3.org/2000/svg"
   xmlns:svg="http://www.w3.org/2000/svg"><defs
     id="defs1" /><sodipodi:namedview
     id="namedview1"
     pagecolor="#ffffff"
     bordercolor="#000000"
     borderopacity="0.25"
     inkscape:showpageshadow="2"
     inkscape:pageopacity="0.0"
     inkscape:pagecheckerboard="0"
     inkscape:deskcolor="#d1d1d1"
     inkscape:zoom="1.7558594"
     inkscape:cx="245.17908"
     inkscape:cy="223.53726"
     inkscape:window-width="1920"
     inkscape:window-height="1137"
     inkscape:window-x="-8"
     inkscape:window-y="-8"
     inkscape:window-maximized="1"
     inkscape:current-layer="layer1" /><g
     inkscape:groupmode="layer"
     id="layer1"
     inkscape:label="Layer 1"><g
       id="g2"
       transform="matrix(1.1808549,0,0,1.1336207,-165.20516,-21.613397)"
       style="stroke-width:0.864307"><path
         style="fill:#f29c1f;fill-opacity:1;stroke-width:0.864307"
         d="m 208.48922,240.79254 c -4.15892,-1.30495 -7.82863,-4.49319 -9.98707,-8.67676 -1.55639,-3.01663 -1.83346,-9.04187 -0.56797,-12.3511 0.93365,-2.44148 104.11409,-180.076266 106.52979,-183.401017 5.21425,-7.17641 15.08538,-8.839125 22.66602,-3.817917 1.27865,0.846945 2.94615,2.448541 3.70554,3.559102 2.79534,4.087968 105.23674,180.332772 106.32564,182.927412 3.23089,7.69862 -0.38828,17.09772 -8.02819,20.84943 l -2.78448,1.36736 -107.91015,0.0916 c -87.81039,0.0746 -108.28994,-0.0275 -109.94913,-0.54815 z M 420.8305,223.30472 c -0.52743,-0.87281 -6.83905,-11.69434 -14.02582,-24.04785 -7.18676,-12.35352 -19.59414,-33.667 -27.57195,-47.36329 -7.97782,-13.69628 -20.71146,-35.55908 -28.29699,-48.58398 -7.58553,-13.024907 -18.11048,-31.095213 -23.38878,-40.156241 -5.27829,-9.061028 -9.70676,-16.475766 -9.84103,-16.477196 -0.20813,-0.0022 -15.06575,25.229081 -24.70304,41.950833 -2.15235,3.734571 -77.54868,133.200844 -79.14218,135.898424 -0.11897,0.20142 46.61632,0.36621 103.85622,0.36621 h 104.07255 z"
         id="path1"
         sodipodi:nodetypes="sssssssscsssssssssssscs" /><path
         style="opacity:0.96;fill:#f0c419;fill-opacity:1;stroke:none;stroke-width:4.32153;stroke-linecap:square;stroke-linejoin:bevel;stroke-miterlimit:0;paint-order:stroke markers fill"
         d="M 213.33878,224.93245 317.39147,46.162841 422.14176,225.10345 Z"
         id="path2"
         sodipodi:nodetypes="cccc" /><path
         d="m 313.83519,215.41102 c -2.76881,-0.85354 -6.05319,-3.62386 -7.38027,-6.22515 -1.41266,-2.76904 -1.71471,-6.94354 -0.71927,-9.94054 3.77594,-11.3683 20.26555,-11.3683 24.04149,0 2.22285,6.69238 -1.57338,14.1955 -8.17402,16.15568 -3.07492,0.91315 -4.83083,0.91542 -7.76793,0.01 z m 1.56871,-42.82913 c -2.30841,-3.78709 -4.95904,-14.97793 -7.14157,-30.15137 -1.4912,-10.3672 -3.20301,-26.76961 -3.19648,-30.62851 0.0156,-9.23584 9.61313,-15.523663 17.8175,-11.67317 3.09268,1.45146 4.96155,3.32033 6.41301,6.41301 1.43472,3.05699 1.45476,5.15416 0.16927,17.71134 -2.44989,23.93154 -6.15703,43.07938 -9.35674,48.3287 -0.72544,1.19012 -1.31365,1.58691 -2.35249,1.58691 -1.03885,0 -1.62706,-0.39679 -2.3525,-1.58691 z"
         style="fill:#393f4a;fill-opacity:1;stroke-width:0.864307"
         id="path1-2" /></g></g></svg>
